<svg class="abstract-line" xmlns="http://www.w3.org/2000/svg" width="100%" height="369" viewBox="0 0 1440 369" fill="none">
    <path d="M-39.9098 160.935C58.5978 154.938 128.493 131.212 174.399 110.392C220.82 89.3369 254.411 65.9091 315.198 54.1299C382.245 41.0324 425.751 48.3052 442.939 52.2569C466.767 57.7446 465.215 61.1371 504.131 73.5559C578.886 97.4146 593.359 87.7124 626.762 103.218C682.146 128.921 664.776 165.987 722.406 208.57C764.139 239.419 833.73 264.66 897.41 249.298C957.377 234.829 964.84 195.761 1027.72 191.398C1053.55 189.605 1074.9 195.089 1117.59 206.056C1172.29 220.041 1208.89 236.701 1223.56 242.589C1267.02 260.055 1337.49 271.869 1453.46 241.23" stroke="url(#paint0_linear_43_130)" stroke-opacity="0.35" stroke-miterlimit="10" />
    <path d="M-40.8126 173.601C54.4604 168.62 126.022 147.298 176.073 125.766C216.737 108.024 247.868 88.3159 290.513 74.6228C299.839 71.6377 309.66 68.7628 320.224 66.3189C386.789 50.9404 430.2 54.5161 448.311 56.5444C472.598 59.2515 472.549 61.8099 510.69 73.8833C537.571 82.3769 556.738 87.3011 571.595 90.5756C596.849 96.1337 609.533 96.7212 629.352 106.863C636.747 110.617 643.668 115.173 649.976 120.442C679.153 144.796 677.316 174.927 725.861 207.832C768.117 236.476 837.297 258.848 899.893 243.58C904.853 242.368 909.745 240.916 914.55 239.231C963.043 222.198 974.46 190.827 1029.73 186.922C1035.56 186.503 1041.41 186.456 1047.24 186.782C1066.84 187.818 1087.03 192.891 1118.99 201.094C1171.95 214.759 1207.98 231.105 1224.15 237.611C1236 242.335 1248.24 246.099 1260.75 248.864C1304.01 258.548 1365.39 260.641 1452.19 239.696" stroke="url(#paint1_linear_43_130)" stroke-opacity="0.35" stroke-miterlimit="10" />
    <path d="M-41.7372 187.386C50.2868 183.393 123.587 164.664 177.728 142.146C220.723 124.275 253.301 103.546 295.179 89.1047C304.737 85.7934 314.642 82.4455 325.258 79.6145C391.341 61.9406 434.624 60.4814 453.707 61.9387C478.295 63.8463 479.937 63.6045 517.243 75.3168C543.364 83.5371 562.443 89.121 577.001 93.0657C601.529 99.6739 613.355 101.136 631.875 111.627C638.931 115.666 645.546 120.373 651.619 125.678C679.793 149.855 680.663 178.226 729.323 208.257C772.103 234.683 840.871 254.185 902.385 239.012C907.593 237.674 912.412 236.328 916.935 234.689C966.951 217.355 978.52 187.454 1031.76 183.683C1037.54 183.249 1043.35 183.182 1049.13 183.483C1069.07 184.424 1089.23 189.367 1120.41 197.483C1171.63 210.77 1207.07 226.846 1224.77 233.827C1236.52 238.508 1248.65 242.278 1261.03 245.102C1303.9 254.98 1364.97 258.059 1450.88 239.341" stroke="url(#paint2_linear_43_130)" stroke-opacity="0.35" stroke-miterlimit="10" />
    <path d="M-42.6645 202.107C46.1093 199.159 121.106 182.834 179.379 159.533C224.647 141.418 258.716 119.739 299.797 104.535C309.602 100.898 319.606 97.0918 330.244 93.8586C395.845 73.918 438.868 70.2971 459.054 68.2672C484.027 65.768 487.277 66.3333 523.764 77.6848C549.153 85.6036 568.144 91.8616 582.479 96.4778C606.267 104.122 617.264 106.488 634.486 117.314C641.147 121.642 647.417 126.5 653.229 131.835C680.4 155.819 684.068 182.418 732.724 209.559C776.087 233.767 844.384 250.414 904.814 235.321C909.978 233.982 914.766 232.635 919.259 231.039C970.769 213.331 982.534 184.957 1033.72 181.176C1039.46 180.728 1045.22 180.641 1050.97 180.916C1071.24 181.749 1091.43 186.592 1121.79 194.548C1171.24 207.441 1206.11 223.234 1225.32 230.804C1237 235.416 1249.03 239.188 1261.3 242.089C1303.77 252.16 1364.54 256.24 1449.53 239.732" stroke="url(#paint3_linear_43_130)" stroke-opacity="0.35" stroke-miterlimit="10" />
    <path d="M-43.6072 216.855C41.932 214.923 118.595 201.032 181.015 176.932C228.572 158.559 264.116 135.917 304.43 119.979C314.466 116.016 324.554 111.737 335.245 108.116C400.363 85.9521 443.063 78.8022 464.417 74.6379C489.646 69.7136 494.571 69.1031 530.298 80.0951C555.017 87.7566 573.831 94.6439 587.913 99.8879C610.96 108.553 621.113 111.852 637.051 122.998C643.307 127.606 649.235 132.61 654.794 137.975C680.978 161.739 687.445 186.579 736.108 210.917C780.055 232.893 847.865 246.698 907.227 231.7C912.331 230.359 917.089 229.012 921.566 227.444C974.586 209.377 986.514 182.674 1035.66 178.796C1041.36 178.355 1047.08 178.249 1052.79 178.477C1073.36 179.215 1093.49 183.942 1123.15 191.741C1170.87 204.27 1205.16 219.793 1225.87 227.909C1237.47 232.477 1249.39 236.255 1261.55 239.217C1303.64 249.497 1364.11 254.548 1448.2 240.281" stroke="url(#paint4_linear_43_130)" stroke-opacity="0.35" stroke-miterlimit="10" />
    <path d="M-44.42 226.358C37.8847 225.443 116.229 213.999 182.781 189.102C232.611 170.456 269.647 146.806 309.192 130.193C319.446 125.888 329.647 121.194 340.376 117.143C404.98 92.7552 447.401 82.1492 469.864 75.7486C495.363 68.5001 502.055 66.6006 536.918 77.2454C556.17 83.1438 575.045 90.1203 593.445 98.1389C615.797 107.811 625.075 112.072 639.687 123.466C646.067 128.462 651.104 133.749 656.564 138.9C681.762 162.387 691.039 185.57 739.668 207.031C784.243 226.762 851.537 237.739 909.815 222.835C914.874 221.493 919.602 220.146 924.049 218.606C978.592 200.223 990.688 174.946 1037.79 171.173C1043.44 170.73 1049.12 170.608 1054.79 170.808C1075.69 171.48 1095.79 176.049 1124.64 183.645C1170.61 195.768 1204.33 211.049 1226.54 219.712C1238.07 224.232 1249.89 228.013 1261.94 231.029C1303.65 241.517 1363.79 247.569 1446.99 235.513" stroke="url(#paint5_linear_43_130)" stroke-opacity="0.35" stroke-miterlimit="10" />
    <path d="M-45.2401 233.129C33.8155 233.202 113.841 224.191 184.539 198.525C236.644 179.606 275.141 154.92 313.947 137.732C324.432 133.072 334.716 127.949 345.499 123.496C409.664 96.9285 451.819 82.8809 475.377 74.215C501.1 64.7135 509.546 61.4527 543.604 71.737C562.688 77.5004 581.226 84.8102 599.016 93.587C620.613 104.237 629.076 109.489 642.388 121.246C648.299 126.434 652.927 131.929 658.341 137.137C682.565 160.462 694.674 181.714 743.235 200.457C788.469 217.914 855.23 226.091 912.425 211.267C917.424 209.925 922.107 208.576 926.553 207.065C982.619 188.409 994.928 164.603 1039.92 160.962C1045.53 160.504 1051.17 160.362 1056.8 160.537C1078 161.115 1098.11 165.554 1126.17 173.049C1170.38 184.807 1203.53 199.804 1227.25 209.043C1238.7 213.507 1250.43 217.289 1262.36 220.368C1303.68 231.064 1363.52 238.117 1445.82 228.259" stroke="url(#paint6_linear_43_130)" stroke-opacity="0.35" stroke-miterlimit="10" />
    <path d="M-46.0178 240.002C29.7877 241.119 111.465 234.484 186.34 208.049C240.704 188.843 280.649 163.092 318.716 145.243C329.434 140.199 339.832 134.646 350.651 129.821C414.346 101.102 456.266 83.6706 480.876 72.638C506.986 60.9439 517.036 56.276 550.275 66.1996C569.221 71.9037 587.443 79.6213 604.599 89.2078C625.411 100.806 633.073 107.107 645.103 119.127C650.499 124.521 654.748 130.181 660.1 135.488C683.368 158.55 698.351 177.989 746.814 193.983C792.723 209.138 858.907 214.529 914.972 199.813C919.926 198.47 924.579 197.121 928.995 195.624C986.585 176.594 999.001 154.3 1042.01 150.65C1047.58 150.19 1053.17 150.028 1058.76 150.165C1080.29 150.576 1100.37 154.957 1127.63 162.322C1170.12 173.673 1202.66 188.429 1227.91 198.2C1239.28 202.626 1250.91 206.42 1262.73 209.563C1303.66 220.41 1363.2 228.463 1444.58 220.859" stroke="url(#paint7_linear_43_130)" stroke-opacity="0.35" stroke-miterlimit="10" />
    <path d="M-46.8106 246.903C25.7602 249.037 109.105 244.806 188.126 217.602C244.763 198.108 286.157 171.278 323.498 152.854C334.418 147.469 344.944 141.531 355.787 136.217C419.028 105.346 460.742 84.5326 486.389 71.133C512.856 57.2602 524.526 51.1566 556.961 60.7197C575.763 66.3594 593.671 74.4424 610.183 84.7421C630.331 97.3056 637.056 104.652 647.804 116.935C652.7 122.55 656.601 128.347 661.876 133.754C684.187 156.567 702.015 174.148 750.379 187.437C796.995 200.248 862.584 202.91 917.612 188.274C922.52 186.93 927.143 185.581 931.528 184.126C990.656 164.824 1003.21 143.971 1044.19 140.368C1049.72 139.906 1055.27 139.724 1060.82 139.823C1082.67 140.111 1102.8 144.407 1129.24 151.612C1169.95 162.584 1201.93 177.085 1228.69 187.402C1239.97 191.798 1251.5 195.613 1263.21 198.831C1303.75 209.93 1362.99 218.926 1443.47 213.548" stroke="url(#paint8_linear_43_130)" stroke-opacity="0.35" stroke-miterlimit="10" />
    <path d="M-47.6034 253.774C21.7337 256.882 106.775 255.042 189.942 227.083C248.915 207.289 291.666 179.363 328.312 160.393C339.45 154.625 350.087 148.3 360.969 142.584C423.739 109.606 465.262 85.4237 491.932 69.5849C518.815 53.6064 532.061 46.0088 563.676 55.2112C582.347 60.8301 599.945 69.315 615.781 80.3338C635.205 93.818 641.053 102.269 650.519 114.801C654.915 120.637 658.422 126.556 663.711 132.077C685.095 154.629 705.8 170.266 754.034 180.936C801.356 191.373 866.336 191.335 920.295 176.794C925.143 175.448 929.736 174.098 934.104 172.744C994.755 153.155 1007.46 133.742 1046.38 130.215C1051.88 129.723 1057.4 129.521 1062.92 129.611C1085.09 129.891 1105.14 133.969 1130.87 140.974C1169.83 151.568 1201.23 165.813 1229.51 176.677C1239.73 180.61 1251.05 184.522 1263.74 188.072C1303.9 199.364 1362.82 209.361 1442.39 206.194" stroke="url(#paint9_linear_43_130)" stroke-opacity="0.35" stroke-miterlimit="10" />
    <path d="M-48.3915 260.446C17.6356 264.583 104.359 265.147 191.702 236.448C252.873 216.351 297.104 187.304 333.068 167.803C344.409 161.65 355.174 154.954 366.094 148.808C428.453 113.722 469.815 86.1868 497.403 67.9213C524.703 49.7508 539.509 40.7452 570.319 49.5871C588.881 55.1905 606.189 64.0651 621.352 75.7532C640.082 90.1732 644.933 99.7413 653.208 112.495C657.103 118.551 660.248 124.607 665.414 130.227C685.872 152.487 709.437 166.266 757.527 174.259C805.617 182.252 869.941 179.57 922.817 165.124C927.62 163.778 932.183 162.427 936.521 161.072C998.71 141.196 1011.57 123.224 1048.49 119.76C1053.93 119.256 1059.4 119.039 1064.86 119.109C1087.4 119.266 1107.39 123.243 1132.26 130.145C1169.49 140.346 1200.29 154.35 1230.09 165.746C1240.27 169.65 1251.5 173.546 1264.04 177.164C1303.8 188.65 1362.42 199.634 1441.09 198.707" stroke="url(#paint10_linear_43_130)" stroke-opacity="0.35" stroke-miterlimit="10" />
    <path d="M-49.1631 267.03C13.674 272.213 101.99 275.123 193.509 245.699C256.999 225.344 302.559 195.1 337.842 175.126C349.4 168.575 360.292 161.522 371.28 154.945C433.199 117.738 474.414 86.8923 502.906 66.1134C530.681 45.9103 547.064 35.3245 576.95 43.818C596.795 49.4597 614.699 60.6862 626.897 71.0273C644.948 86.3546 648.935 97.0709 655.884 110.044C659.25 116.319 662.046 122.512 667.135 128.246C686.683 150.187 713.064 162.036 761.038 167.424C809.806 172.943 873.565 167.662 925.356 153.309C930.1 151.962 934.633 150.611 938.956 149.256C1002.67 129.078 1015.66 112.546 1050.51 109.157C1055.91 108.644 1061.34 108.407 1066.76 108.447C1089.59 108.466 1109.58 112.357 1133.75 119.116C1169.23 128.939 1199.4 142.686 1230.73 154.629C1240.85 158.489 1252 162.397 1264.37 166.056C1303.75 177.75 1362.07 189.72 1439.83 190.975" stroke="url(#paint11_linear_43_130)" stroke-opacity="0.35" stroke-miterlimit="10" />
    <path d="M-49.9485 273.529C9.65374 279.743 99.5659 284.84 195.302 254.85C260.95 234.019 308.001 202.796 342.632 182.307C354.379 175.342 365.443 167.947 376.409 160.939C437.946 121.697 479.031 87.4268 508.425 64.2495C536.691 41.9566 554.485 29.8735 583.687 37.9945C602.83 43.364 620.634 55.1638 632.532 66.2468C649.905 82.4814 652.864 94.3282 658.636 107.537C661.517 114.034 663.935 120.335 668.962 126.182C687.598 147.876 716.843 157.694 764.684 160.607C814.206 163.609 877.322 155.771 928.031 141.499C932.734 140.16 937.232 138.808 941.525 137.443C1006.79 117.007 1019.92 101.888 1052.73 98.5746C1058.08 98.0439 1063.46 97.7868 1068.85 97.8042C1091.98 97.7142 1111.98 101.504 1135.37 108.105C1169.09 117.534 1198.71 131.098 1231.57 143.531C1241.65 147.376 1252.7 151.253 1264.93 154.967C1303.92 166.869 1361.93 179.825 1438.79 183.336" stroke="url(#paint12_linear_43_130)" stroke-opacity="0.35" stroke-miterlimit="10" />
    <path d="M-50.7322 279.927C5.62069 287.143 97.2147 294.644 197.097 263.899C265.019 242.781 313.46 210.348 347.424 189.429C359.358 182.08 370.549 174.314 381.569 166.875C442.71 125.569 483.739 87.9337 513.932 62.2698C542.718 37.8732 561.984 24.2366 590.306 32.0101C608.764 37.0933 626.481 49.4809 638.049 61.3341C654.774 78.4765 656.704 91.4828 661.255 104.913C663.56 111.643 665.706 118.068 670.641 124.014C688.486 145.405 720.551 154.645 768.273 153.616C818.444 152.533 881.023 143.706 930.663 129.529C935.316 128.189 939.779 126.837 944.052 125.471C1010.88 104.864 1024.13 91.0546 1054.88 87.8175C1060.2 87.281 1065.54 87.0087 1070.88 87.0017C1094.34 86.8172 1114.39 90.4785 1136.92 96.8905C1168.82 106.012 1197.93 119.408 1232.29 132.301C1242.33 136.116 1253.29 139.992 1265.35 143.759C1303.96 155.87 1361.67 169.813 1437.61 175.549" stroke="url(#paint13_linear_43_130)" stroke-opacity="0.35" stroke-miterlimit="10" />
    <path d="M-51.5742 286.251C1.54462 294.455 94.8049 304.39 198.833 272.875C269.029 251.47 318.771 217.84 352.143 196.421C364.31 188.659 375.628 180.565 386.657 172.637C447.433 129.225 488.299 88.3081 519.396 60.1453C548.763 33.6748 569.529 18.5716 597.063 25.9705C614.82 30.7671 632.451 43.7283 643.703 56.3519C659.78 74.3733 660.636 88.5381 664.057 102.177C665.817 109.141 667.66 115.675 672.517 121.749C689.392 142.834 724.197 148.618 771.848 146.538C822.702 144.36 884.696 131.555 933.252 117.471C937.785 116.12 942.318 114.769 946.536 113.411C1014.89 92.5026 1028.3 80.1201 1057.01 76.9734C1062.28 76.4186 1067.58 76.1263 1072.88 76.0975C1096.65 75.8041 1116.63 79.3633 1138.44 85.6466C1168.67 94.3192 1197.13 107.387 1233.01 120.898C1243.02 124.683 1253.9 128.486 1265.84 132.381C1304.06 144.614 1361.48 159.615 1436.44 167.575" stroke="url(#paint14_linear_43_130)" stroke-opacity="0.35" stroke-miterlimit="10" />
    <path d="M-52.2797 292.507C-2.41102 301.756 92.5016 314.065 200.706 281.797C273.236 260.105 324.234 225.205 356.953 203.386C369.249 195.195 380.798 186.788 391.834 178.458C452.331 133.143 493.01 88.6568 524.845 58.035C554.719 29.403 576.866 12.8308 603.699 19.9001C620.755 24.4101 638.33 37.9453 649.253 51.3247C664.695 70.3117 664.449 85.5482 666.738 99.424C667.908 106.636 669.479 113.265 674.243 119.453C690.253 140.234 727.863 143.885 775.38 139.43C826.898 134.663 888.354 119.374 935.812 105.37C940.345 104.019 944.773 102.666 948.988 101.423C1018.88 80.2132 1032.42 69.2135 1059.1 66.143C1064.36 65.5975 1069.65 65.3146 1074.95 65.2956C1097 64.9224 1118.97 68.0137 1139.98 74.4462C1168.46 82.7403 1196.34 95.5522 1233.73 109.61C1243.7 113.352 1254.47 117.195 1266.22 121.101C1321.16 139.079 1377.75 152.009 1435.23 159.715" stroke="url(#paint15_linear_43_130)" stroke-opacity="0.35" stroke-miterlimit="10" />
    <path d="M-53.059 298.718C-6.42495 308.984 90.1545 323.698 202.505 290.66C277.249 268.68 329.607 232.598 361.794 210.308C504.657 111.281 551.433 -1.47242 610.442 13.7603C626.798 17.9837 644.317 32.093 654.894 46.2422C677.484 76.4372 662.455 98.7243 676.076 117.101C709.47 162.169 864.449 115.51 951.549 89.294C1036.47 63.7269 1039.76 55.0333 1076.92 54.3053C1141.77 52.9994 1174.98 78.5518 1266.67 109.693C1321.18 128.125 1377.2 142.181 1434.13 151.715" stroke="url(#paint16_linear_43_130)" stroke-opacity="0.35" stroke-miterlimit="10" />
    <path d="M-53.1376 302.828C-5.27378 313.995 88.3234 327.53 195.734 295.908C269.876 274.017 320.047 237.534 354.584 214.11C492.549 120.655 536.994 17.4323 597.207 27.8712C620.732 31.9441 644.548 39.6602 660.15 51.0872C690.806 73.557 678.882 92.8983 696.571 110.735C735.292 149.808 879.783 109.533 962.694 85.5382C1043.46 62.0772 1046.84 55.0675 1086.06 57.2546C1151.22 60.8865 1182.96 83.5494 1269.31 113.41C1323.19 132.031 1378.78 145.758 1435.33 154.411" stroke="url(#paint17_linear_43_130)" stroke-opacity="0.35" stroke-miterlimit="10" />
    <path d="M-53.2193 307.112C26.5922 326.3 110.325 324.296 188.96 301.314C262.499 279.527 310.395 242.612 347.373 218.07C480.262 129.938 523.158 34.7098 583.984 42.141C614.846 45.9226 643.907 47.2831 665.403 56.1052C702.285 71.1883 694.741 87.0043 717.062 104.541C759.707 138.009 895.114 103.716 973.851 81.9412C1050.33 60.5837 1053.81 55.1146 1095.21 60.3628C1160.52 68.6274 1190.92 88.8492 1271.96 117.3C1325.19 136.097 1380.33 149.497 1436.46 157.28" stroke="url(#paint18_linear_43_130)" stroke-opacity="0.35" stroke-miterlimit="10" />
    <path d="M-53.365 314.73C24.1087 334.086 105.642 332.468 182.137 310.056C255.058 288.357 300.694 251.011 340.097 225.365C467.645 142.365 509.502 65.291 570.681 59.7451C608.954 56.2778 642.698 58.648 670.607 64.4437C712.778 73.1863 710.099 84.451 737.504 101.668C782.874 130.17 910.408 101.377 984.928 81.6786C1057.23 62.5706 1060.66 58.3658 1104.28 66.791C1169.72 79.4291 1198.81 97.4547 1274.56 124.51C1327.14 143.505 1381.85 156.584 1437.57 163.484" stroke="url(#paint19_linear_43_130)" stroke-opacity="0.35" stroke-miterlimit="10" />
    <path d="M-53.5867 326.329C21.5433 345.842 100.876 344.596 175.224 322.735C247.543 301.111 290.903 263.333 332.745 236.598C454.865 158.57 496.16 88.9186 557.319 81.2874C602.755 75.6277 642.955 66.4171 675.721 76.7198C720.808 90.8957 722.488 91.848 757.857 102.732C800.052 134.611 925.613 102.932 995.946 85.3542C1064.03 68.3943 1067.42 65.4396 1113.29 77.1717C1178.82 93.9381 1206.61 110.055 1277.06 135.658C1329.01 154.844 1383.29 167.599 1438.6 173.612" stroke="url(#paint20_linear_43_130)" stroke-opacity="0.35" stroke-miterlimit="10" />
    <path d="M-53.8136 338.201C18.969 357.883 96.1056 357.051 168.334 335.802C240.05 314.282 281.12 276.029 325.417 248.219C441.991 175.017 482.705 112.141 543.874 103.216C596.605 95.5393 640.602 82.6053 680.857 89.399C732.764 98.1551 737.433 95.196 778.231 104.2C822.594 132.697 940.797 104.761 1006.88 89.4164C1070.75 74.6046 1074.12 72.7566 1122.22 87.9391C1187.93 108.634 1214.32 123.071 1279.5 147.193C1330.81 166.573 1384.68 179.004 1439.55 184.126" stroke="url(#paint21_linear_43_130)" stroke-opacity="0.35" stroke-miterlimit="10" />
    <path d="M-54.0449 350.304C16.3743 370.118 91.2939 369.674 161.38 349.027C232.493 327.596 271.244 288.868 318.025 259.998C429.01 191.506 469.151 135.061 530.561 125.306C590.433 115.796 638.855 107.979 685.931 102.221C744.06 95.1071 752.315 98.6726 798.543 105.81C845.147 131.015 955.977 106.805 1017.95 93.6396C1077.6 80.9759 1080.95 80.1484 1131.28 98.8675C1197.04 123.331 1222.14 136.305 1282 158.902C1332.67 178.468 1386.13 190.576 1440.57 194.815" stroke="url(#paint22_linear_43_130)" stroke-opacity="0.35" stroke-miterlimit="10" />
    <path d="M-54.2789 362.564C1.33975 379.112 76.7388 385.772 154.469 362.426C225.022 341.228 261.396 301.85 310.661 271.95C415.954 208.05 455.57 157.821 517.17 147.567C584.331 136.399 637.79 125.241 691.046 115.216C754.828 103.192 768.822 94.2143 818.897 107.594C870.781 121.454 971.154 109.065 1028.94 98.0337C1084.37 87.5037 1087.73 87.6542 1140.26 109.952C1206.28 138.058 1229.89 149.739 1284.57 170.77C1318.56 183.842 1369.88 201.07 1441.65 205.662" stroke="url(#paint23_linear_43_130)" stroke-opacity="0.35" stroke-miterlimit="10" />
    <path d="M-54.5173 375.04C2.39177 392.461 74.7479 397.97 147.538 376.024C217.488 354.931 251.515 314.99 303.292 284.102C402.82 224.708 441.765 180.549 503.79 170.03C578.251 157.39 636.853 142.794 696.143 128.412C765.742 111.525 783.293 97.999 839.232 109.578C892.551 120.662 986.313 111.411 1039.94 102.629C1091.18 94.2335 1094.65 95.1624 1149.26 121.253C1215.54 152.901 1237.6 163.431 1287.05 182.838C1320.55 195.987 1371.1 213.2 1442.66 216.724" stroke="url(#paint24_linear_43_130)" stroke-opacity="0.35" stroke-miterlimit="10" />
    <path d="M-54.7583 387.659C3.48488 406.026 72.7544 410.312 140.605 389.782C209.952 368.791 241.6 328.273 295.92 296.413C389.64 241.438 427.959 203.29 490.392 192.65C572.225 178.699 635.988 160.549 701.236 141.767C776.772 120.032 797.77 102.273 859.564 111.721C914.392 120.102 1001.47 113.987 1050.92 107.383C1097.88 101.091 1101.56 102.815 1158.23 132.712C1224.87 167.846 1245.3 177.324 1289.54 195.064C1322.55 208.304 1372.31 225.56 1443.66 227.93" stroke="url(#paint25_linear_43_130)" stroke-opacity="0.35" stroke-miterlimit="10" />
    <path d="M-55.0033 400.466C4.47085 419.676 70.7723 422.826 133.668 403.711C202.412 382.81 231.654 341.671 288.545 308.896C376.397 258.266 413.203 219.098 477.006 215.442C567.46 210.255 635.165 178.492 706.326 155.293C787.859 128.727 815.696 92.6796 879.892 114.036C933.517 131.926 1016.56 116.647 1061.91 112.309C1104.63 108.164 1108.52 110.582 1167.22 144.328C1234.26 182.893 1252.96 191.446 1292.02 207.462C1324.53 220.808 1373.53 238.064 1444.66 239.322" stroke="url(#paint26_linear_43_130)" stroke-opacity="0.35" stroke-miterlimit="10" />
    <path d="M-55.2557 413.69C5.50831 433.801 68.7682 435.729 126.737 418.144C194.863 397.332 221.669 355.514 281.161 321.883C363.177 275.527 399.353 243.378 463.595 238.738C561.387 231.649 634.391 196.954 711.422 169.324C799.012 137.927 828.997 99.5194 900.226 116.855C956.724 130.616 1031.75 119.914 1072.88 117.738C1111.37 115.698 1115.59 118.798 1176.18 156.463C1243.7 198.415 1260.62 206.115 1294.51 220.364C1326.51 233.83 1374.74 251.057 1445.66 251.204" stroke="url(#paint27_linear_43_130)" stroke-opacity="0.35" stroke-miterlimit="10" />
    <path d="M-55.5242 427.746C6.51459 448.76 66.7318 449.522 119.777 433.252C187.301 412.529 211.627 369.973 273.763 335.545C349.779 293.416 385.475 268.332 450.186 262.71C555.349 253.576 633.635 216.106 716.49 184.043C810.212 147.774 842.646 107.832 920.532 120.363C979.755 129.891 1046.85 123.782 1083.85 123.842C1118.08 123.892 1122.68 127.661 1185.15 169.273C1253.17 214.585 1268.29 221.516 1296.97 233.955C1328.46 247.584 1376.01 264.74 1446.64 263.775" stroke="url(#paint28_linear_43_130)" stroke-opacity="0.35" stroke-miterlimit="10" />
    <path d="M-55.7973 442.048C7.53136 463.963 64.7064 463.531 112.812 448.692C179.733 428.043 201.536 384.663 266.36 349.538C336.422 311.566 371.546 293.588 436.756 287.012C549.233 275.674 632.902 235.575 721.551 199.079C821.496 157.954 856.622 117.071 940.832 124.187C1002.63 129.408 1061.96 127.939 1094.8 130.278C1124.75 132.389 1129.8 136.799 1194.09 182.413C1262.71 231.073 1275.8 237.362 1299.42 247.878C1330.36 261.712 1377.11 278.766 1447.61 276.677" stroke="url(#paint29_linear_43_130)" stroke-opacity="0.35" stroke-miterlimit="10" />
    <path d="M-56.0949 457.614C8.52392 480.416 62.6132 478.718 105.822 465.381C172.098 444.677 191.347 400.486 258.932 364.781C323.011 330.922 357.578 320.079 423.317 312.565C543.05 298.878 632.176 256.309 726.528 215.365C832.576 169.381 871.095 134.099 961.047 129.261C1025.15 125.827 1076.97 133.345 1105.68 137.963C1131.4 142.106 1136.91 147.186 1202.97 196.789C1272.2 248.81 1283.27 254.399 1301.79 263.021C1332.14 277.159 1378.21 294.014 1448.5 290.813" stroke="url(#paint30_linear_43_130)" stroke-opacity="0.35" stroke-miterlimit="10" />
    <path d="M-56.3894 473.022C9.50431 496.726 60.5662 493.848 98.8501 481.926C164.509 461.311 181.075 416.005 251.507 379.88C309.588 350.09 343.583 346.412 409.866 337.973C536.843 321.807 631.467 276.885 731.643 231.523C843.929 180.655 886.065 142.451 981.4 134.207C1047.62 128.513 1092.15 138.523 1116.67 145.505C1138.17 151.667 1144.18 157.39 1211.95 211.037C1281.87 266.378 1290.82 271.394 1304.3 278.051C1333.95 292.679 1379.44 309.12 1449.52 304.808" stroke="url(#paint31_linear_43_130)" stroke-opacity="0.35" stroke-miterlimit="10" />
    <path d="M-56.684 488.445C10.4548 513.035 58.6092 508.994 91.8633 498.472C156.859 477.945 170.701 431.292 244.082 394.98C296.167 369.202 329.573 372.745 396.429 363.382C530.578 344.593 630.774 297.405 736.683 247.666C855.207 191.927 901.081 150.747 1001.68 139.139C1070.26 131.232 1107.32 143.63 1127.62 153.048C1144.94 161.085 1151.38 167.578 1220.89 225.284C1291.51 283.96 1298.26 288.446 1306.73 293.065C1335.39 308.696 1380.6 324.24 1450.47 318.817" stroke="url(#paint32_linear_43_130)" stroke-opacity="0.35" stroke-miterlimit="10" />
    <defs>
        <linearGradient id="paint0_linear_43_130" x1="709.608" y1="52.7349" x2="705.819" y2="251.07" gradientUnits="userSpaceOnUse">
            <stop stop-color="#5DFFFF" stop-opacity="0.6" />
            <stop offset="1" stop-color="#33BBFF" stop-opacity="0.59" />
        </linearGradient>
        <linearGradient id="paint1_linear_43_130" x1="708.488" y1="60.2344" x2="704.946" y2="245.653" gradientUnits="userSpaceOnUse">
            <stop stop-color="#5DFFFF" stop-opacity="0.6" />
            <stop offset="1" stop-color="#33BBFF" stop-opacity="0.59" />
        </linearGradient>
        <linearGradient id="paint2_linear_43_130" x1="707.376" y1="66.5595" x2="704.035" y2="241.448" gradientUnits="userSpaceOnUse">
            <stop stop-color="#5DFFFF" stop-opacity="0.6" />
            <stop offset="1" stop-color="#33BBFF" stop-opacity="0.59" />
        </linearGradient>
        <linearGradient id="paint3_linear_43_130" x1="706.291" y1="71.4205" x2="703.094" y2="238.751" gradientUnits="userSpaceOnUse">
            <stop stop-color="#5DFFFF" stop-opacity="0.6" />
            <stop offset="1" stop-color="#33BBFF" stop-opacity="0.59" />
        </linearGradient>
        <linearGradient id="paint4_linear_43_130" x1="705.224" y1="75.3706" x2="702.14" y2="236.791" gradientUnits="userSpaceOnUse">
            <stop stop-color="#5DFFFF" stop-opacity="0.6" />
            <stop offset="1" stop-color="#33BBFF" stop-opacity="0.59" />
        </linearGradient>
        <linearGradient id="paint5_linear_43_130" x1="704.288" y1="73.6751" x2="701.098" y2="240.601" gradientUnits="userSpaceOnUse">
            <stop stop-color="#5DFFFF" stop-opacity="0.6" />
            <stop offset="1" stop-color="#33BBFF" stop-opacity="0.59" />
        </linearGradient>
        <linearGradient id="paint6_linear_43_130" x1="703.377" y1="69.0773" x2="699.97" y2="247.367" gradientUnits="userSpaceOnUse">
            <stop stop-color="#5DFFFF" stop-opacity="0.6" />
            <stop offset="1" stop-color="#33BBFF" stop-opacity="0.59" />
        </linearGradient>
        <linearGradient id="paint7_linear_43_130" x1="702.454" y1="64.2584" x2="698.825" y2="254.232" gradientUnits="userSpaceOnUse">
            <stop stop-color="#5DFFFF" stop-opacity="0.6" />
            <stop offset="1" stop-color="#33BBFF" stop-opacity="0.59" />
        </linearGradient>
        <linearGradient id="paint8_linear_43_130" x1="701.594" y1="59.3513" x2="697.738" y2="261.189" gradientUnits="userSpaceOnUse">
            <stop stop-color="#5DFFFF" stop-opacity="0.6" />
            <stop offset="1" stop-color="#33BBFF" stop-opacity="0.59" />
        </linearGradient>
        <linearGradient id="paint9_linear_43_130" x1="700.751" y1="54.3049" x2="696.661" y2="268.378" gradientUnits="userSpaceOnUse">
            <stop stop-color="#5DFFFF" stop-opacity="0.6" />
            <stop offset="1" stop-color="#33BBFF" stop-opacity="0.59" />
        </linearGradient>
        <linearGradient id="paint10_linear_43_130" x1="699.8" y1="49.0329" x2="695.47" y2="275.711" gradientUnits="userSpaceOnUse">
            <stop stop-color="#5DFFFF" stop-opacity="0.6" />
            <stop offset="1" stop-color="#33BBFF" stop-opacity="0.59" />
        </linearGradient>
        <linearGradient id="paint11_linear_43_130" x1="698.876" y1="43.5555" x2="694.296" y2="283.281" gradientUnits="userSpaceOnUse">
            <stop stop-color="#5DFFFF" stop-opacity="0.6" />
            <stop offset="1" stop-color="#33BBFF" stop-opacity="0.59" />
        </linearGradient>
        <linearGradient id="paint12_linear_43_130" x1="698.059" y1="37.9635" x2="693.225" y2="291" gradientUnits="userSpaceOnUse">
            <stop stop-color="#5DFFFF" stop-opacity="0.6" />
            <stop offset="1" stop-color="#33BBFF" stop-opacity="0.59" />
        </linearGradient>
        <linearGradient id="paint13_linear_43_130" x1="697.178" y1="32.1505" x2="692.082" y2="298.87" gradientUnits="userSpaceOnUse">
            <stop stop-color="#5DFFFF" stop-opacity="0.6" />
            <stop offset="1" stop-color="#33BBFF" stop-opacity="0.59" />
        </linearGradient>
        <linearGradient id="paint14_linear_43_130" x1="696.269" y1="26.2408" x2="690.908" y2="306.858" gradientUnits="userSpaceOnUse">
            <stop stop-color="#5DFFFF" stop-opacity="0.6" />
            <stop offset="1" stop-color="#33BBFF" stop-opacity="0.59" />
        </linearGradient>
        <linearGradient id="paint15_linear_43_130" x1="695.407" y1="20.251" x2="689.776" y2="314.957" gradientUnits="userSpaceOnUse">
            <stop stop-color="#5DFFFF" stop-opacity="0.6" />
            <stop offset="1" stop-color="#33BBFF" stop-opacity="0.59" />
        </linearGradient>
        <linearGradient id="paint16_linear_43_130" x1="694.569" y1="14.1749" x2="688.667" y2="323.128" gradientUnits="userSpaceOnUse">
            <stop stop-color="#5DFFFF" stop-opacity="0.6" />
            <stop offset="1" stop-color="#33BBFF" stop-opacity="0.59" />
        </linearGradient>
        <linearGradient id="paint17_linear_43_130" x1="694.907" y1="29.1584" x2="689.204" y2="327.646" gradientUnits="userSpaceOnUse">
            <stop stop-color="#5DFFFF" stop-opacity="0.6" />
            <stop offset="1" stop-color="#33BBFF" stop-opacity="0.59" />
        </linearGradient>
        <linearGradient id="paint18_linear_43_130" x1="695.217" y1="43.9749" x2="689.708" y2="332.337" gradientUnits="userSpaceOnUse">
            <stop stop-color="#5DFFFF" stop-opacity="0.6" />
            <stop offset="1" stop-color="#33BBFF" stop-opacity="0.59" />
        </linearGradient>
        <linearGradient id="paint19_linear_43_130" x1="695.613" y1="55.4706" x2="690.171" y2="340.347" gradientUnits="userSpaceOnUse">
            <stop stop-color="#5DFFFF" stop-opacity="0.6" />
            <stop offset="1" stop-color="#33BBFF" stop-opacity="0.59" />
        </linearGradient>
        <linearGradient id="paint20_linear_43_130" x1="696.08" y1="62.9101" x2="690.55" y2="352.334" gradientUnits="userSpaceOnUse">
            <stop stop-color="#5DFFFF" stop-opacity="0.6" />
            <stop offset="1" stop-color="#33BBFF" stop-opacity="0.59" />
        </linearGradient>
        <linearGradient id="paint21_linear_43_130" x1="696.519" y1="70.1888" x2="690.893" y2="364.636" gradientUnits="userSpaceOnUse">
            <stop stop-color="#5DFFFF" stop-opacity="0.6" />
            <stop offset="1" stop-color="#33BBFF" stop-opacity="0.59" />
        </linearGradient>
        <linearGradient id="paint22_linear_43_130" x1="696.994" y1="77.1895" x2="691.263" y2="377.14" gradientUnits="userSpaceOnUse">
            <stop stop-color="#5DFFFF" stop-opacity="0.6" />
            <stop offset="1" stop-color="#33BBFF" stop-opacity="0.59" />
        </linearGradient>
        <linearGradient id="paint23_linear_43_130" x1="697.51" y1="83.9837" x2="691.666" y2="389.874" gradientUnits="userSpaceOnUse">
            <stop stop-color="#5DFFFF" stop-opacity="0.6" />
            <stop offset="1" stop-color="#33BBFF" stop-opacity="0.59" />
        </linearGradient>
        <linearGradient id="paint24_linear_43_130" x1="697.992" y1="90.6005" x2="692.028" y2="402.745" gradientUnits="userSpaceOnUse">
            <stop stop-color="#5DFFFF" stop-opacity="0.6" />
            <stop offset="1" stop-color="#33BBFF" stop-opacity="0.59" />
        </linearGradient>
        <linearGradient id="paint25_linear_43_130" x1="698.477" y1="97.0579" x2="692.388" y2="415.789" gradientUnits="userSpaceOnUse">
            <stop stop-color="#5DFFFF" stop-opacity="0.6" />
            <stop offset="1" stop-color="#33BBFF" stop-opacity="0.59" />
        </linearGradient>
        <linearGradient id="paint26_linear_43_130" x1="698.965" y1="103.381" x2="692.744" y2="428.974" gradientUnits="userSpaceOnUse">
            <stop stop-color="#5DFFFF" stop-opacity="0.6" />
            <stop offset="1" stop-color="#33BBFF" stop-opacity="0.59" />
        </linearGradient>
        <linearGradient id="paint27_linear_43_130" x1="699.467" y1="109.323" x2="693.1" y2="442.599" gradientUnits="userSpaceOnUse">
            <stop stop-color="#5DFFFF" stop-opacity="0.6" />
            <stop offset="1" stop-color="#33BBFF" stop-opacity="0.59" />
        </linearGradient>
        <linearGradient id="paint28_linear_43_130" x1="699.981" y1="114.304" x2="693.432" y2="457.058" gradientUnits="userSpaceOnUse">
            <stop stop-color="#5DFFFF" stop-opacity="0.6" />
            <stop offset="1" stop-color="#33BBFF" stop-opacity="0.59" />
        </linearGradient>
        <linearGradient id="paint29_linear_43_130" x1="700.498" y1="119.103" x2="693.76" y2="471.763" gradientUnits="userSpaceOnUse">
            <stop stop-color="#5DFFFF" stop-opacity="0.6" />
            <stop offset="1" stop-color="#33BBFF" stop-opacity="0.59" />
        </linearGradient>
        <linearGradient id="paint30_linear_43_130" x1="701.008" y1="122.682" x2="694.034" y2="487.691" gradientUnits="userSpaceOnUse">
            <stop stop-color="#5DFFFF" stop-opacity="0.6" />
            <stop offset="1" stop-color="#33BBFF" stop-opacity="0.59" />
        </linearGradient>
        <linearGradient id="paint31_linear_43_130" x1="701.583" y1="126.371" x2="694.377" y2="503.508" gradientUnits="userSpaceOnUse">
            <stop stop-color="#5DFFFF" stop-opacity="0.6" />
            <stop offset="1" stop-color="#33BBFF" stop-opacity="0.59" />
        </linearGradient>
        <linearGradient id="paint32_linear_43_130" x1="702.121" y1="130.052" x2="694.684" y2="519.333" gradientUnits="userSpaceOnUse">
            <stop stop-color="#5DFFFF" stop-opacity="0.6" />
            <stop offset="1" stop-color="#33BBFF" stop-opacity="0.59" />
        </linearGradient>
    </defs>
</svg>