<svg class="pattern" xmlns:xlink="http://www.w3.org/1999/xlink" xmlns="http://www.w3.org/2000/svg" viewBox="0 0 1000 565.2173913043478" preserveAspectRatio="xMaxYMax slice">
    <g transform="scale(0.550357732526142)">
        <rect x="0" y="0" width="1817" height="1027" fill="none" />
        <g transform="translate(561.52,8.52) scale(3.098) rotate(0)">
            <path fill-rule="evenodd" clip-rule="evenodd" d="M10 20C15.5228 20 20 15.5228 20 10C20 4.47715 15.5228 0 10 0C4.47715 0 0 4.47715 0 10C0 15.5228 4.47715 20 10 20ZM10 17C13.866 17 17 13.866 17 10C17 6.13401 13.866 3 10 3C6.13401 3 3 6.13401 3 10C3 13.866 6.13401 17 10 17Z" fill="none" />
        </g>
        <g transform="translate(1601.71,21.71) scale(1.779) rotate(0)">
            <path fill-rule="evenodd" clip-rule="evenodd" d="M10 20C15.5228 20 20 15.5228 20 10C20 4.47715 15.5228 0 10 0C4.47715 0 0 4.47715 0 10C0 15.5228 4.47715 20 10 20ZM10 17C13.866 17 17 13.866 17 10C17 6.13401 13.866 3 10 3C6.13401 3 3 6.13401 3 10C3 13.866 6.13401 17 10 17Z" fill="none" />
        </g>
        <g transform="translate(183.01,104.01) scale(1.4495) rotate(0)">
            <path fill-rule="evenodd" clip-rule="evenodd" d="M10 20C15.5228 20 20 15.5228 20 10C20 4.47715 15.5228 0 10 0C4.47715 0 0 4.47715 0 10C0 15.5228 4.47715 20 10 20ZM10 17C13.866 17 17 13.866 17 10C17 6.13401 13.866 3 10 3C6.13401 3 3 6.13401 3 10C3 13.866 6.13401 17 10 17Z" fill="none" />
        </g>
        <path d="M 1272.52 87.52 A 61.96 61.96 0 0 1  1334.48 149.48 L 1272.52 87.52 A 61.96 61.96 0 0 0 1334.48 149.48" fill="none" />
        <path d="M 1437.11 94.11 A 48.77 48.77 0 0 1  1485.8799999999999 142.88 L 1437.11 94.11 A 48.77 48.77 0 0 0 1485.8799999999999 142.88" fill="none" />
        <path d="M 561.52 166.52 A 61.96 61.96 0 0 1  623.48 228.48000000000002 L 561.52 166.52 A 61.96 61.96 0 0 0 623.48 228.48000000000002" fill="var(--color-primary-300)" />
        <rect x="637.2208695652174" y="242.22086956521738" width="68.55826086956522" height="68.55826086956522" fill="none" />
        <g transform="translate(671.5,276.5) scale(1.714) rotate(0)">
            <path fill-rule="evenodd" clip-rule="evenodd" d="M10 20C15.5228 20 20 15.5228 20 10C20 4.47715 15.5228 0 10 0C4.47715 0 0 4.47715 0 10C0 15.5228 4.47715 20 10 20ZM10 17C13.866 17 17 13.866 17 10C17 6.13401 13.866 3 10 3C6.13401 3 3 6.13401 3 10C3 13.866 6.13401 17 10 17Z" fill="var(--color-primary-200)" />
        </g>
        <g transform="translate(712.92,238.92) scale(3.7575000000000003) rotate(0)">
            <path fill-rule="evenodd" clip-rule="evenodd" d="M10 20C15.5228 20 20 15.5228 20 10C20 4.47715 15.5228 0 10 0C4.47715 0 0 4.47715 0 10C0 15.5228 4.47715 20 10 20ZM10 17C13.866 17 17 13.866 17 10C17 6.13401 13.866 3 10 3C6.13401 3 3 6.13401 3 10C3 13.866 6.13401 17 10 17Z" fill="var(--color-primary-400)" opacity="0.15" />
        </g>
        <rect x="948" y="237" width="79" height="79" fill="none" />
        <g transform="translate(987.5,276.5) scale(1.975) rotate(0)">
            <path fill-rule="evenodd" clip-rule="evenodd" d="M10 20C15.5228 20 20 15.5228 20 10C20 4.47715 15.5228 0 10 0C4.47715 0 0 4.47715 0 10C0 15.5228 4.47715 20 10 20ZM10 17C13.866 17 17 13.866 17 10C17 6.13401 13.866 3 10 3C6.13401 3 3 6.13401 3 10C3 13.866 6.13401 17 10 17Z" fill="var(--color-primary-100)" opacity="0.5" />
        </g>
        <g transform="translate(258.71,337.71) scale(1.779) rotate(0)">
            <path fill-rule="evenodd" clip-rule="evenodd" d="M10 20C15.5228 20 20 15.5228 20 10C20 4.47715 15.5228 0 10 0C4.47715 0 0 4.47715 0 10C0 15.5228 4.47715 20 10 20ZM10 17C13.866 17 17 13.866 17 10C17 6.13401 13.866 3 10 3C6.13401 3 3 6.13401 3 10C3 13.866 6.13401 17 10 17Z" fill="var(--color-primary-100)" />
        </g>
        <rect x="1272.5182608695652" y="324.5182608695652" width="61.963478260869564" height="61.963478260869564" fill="none" />
        <path d="M 1190.22 468.78000000000003 A 68.56 68.56 0 0 1  1258.78 400.22 L 1190.22 468.78000000000003 A 68.56 68.56 0 0 0 1258.78 400.22" fill="var(--color-primary-400)" opacity="0.075" />
        <path d="M 485.82 620.19 A 55.37 55.37 0 0 1  541.1899999999999 564.82 L 485.82 620.19 A 55.37 55.37 0 0 0 541.1899999999999 564.82" fill="var(--color-primary-200)" opacity="0.05" />

        <rect x="31.6" y="742.6" width="15.799999999999997" height="15.799999999999997" fill="none" />
        <g transform="translate(107.3,739.3) scale(1.1195) rotate(0)">
            <path fill-rule="evenodd" clip-rule="evenodd" d="M10 20C15.5228 20 20 15.5228 20 10C20 4.47715 15.5228 0 10 0C4.47715 0 0 4.47715 0 10C0 15.5228 4.47715 20 10 20ZM10 17C13.866 17 17 13.866 17 10C17 6.13401 13.866 3 10 3C6.13401 3 3 6.13401 3 10C3 13.866 6.13401 17 10 17Z" fill="var(--color-primary-300)" />
        </g>
        <path d="M 1272.52 719.52 A 61.96 61.96 0 0 1  1334.48 781.48 L 1272.52 719.52 A 61.96 61.96 0 0 0 1334.48 781.48" fill="var(--color-primary-100)" opacity="0.075" />
        <g transform="translate(1437.11,805.11) scale(2.4385000000000003) rotate(0)">
            <path fill-rule="evenodd" clip-rule="evenodd" d="M10 20C15.5228 20 20 15.5228 20 10C20 4.47715 15.5228 0 10 0C4.47715 0 0 4.47715 0 10C0 15.5228 4.47715 20 10 20ZM10 17C13.866 17 17 13.866 17 10C17 6.13401 13.866 3 10 3C6.13401 3 3 6.13401 3 10C3 13.866 6.13401 17 10 17Z" fill="var(--color-primary-200)" opacity="0.25" />
        </g>
        <path d="M 1601.71 811.71 A 35.58 35.58 0 0 1  1637.29 847.2900000000001 L 1601.71 811.71 A 35.58 35.58 0 0 0 1637.29 847.2900000000001" fill="var(--color-primary-200)" />
        <path d="M 410.11 884.11 A 48.77 48.77 0 0 1  458.88 932.88 L 410.11 884.11 A 48.77 48.77 0 0 0 458.88 932.88" fill="var(--color-primary-100)" opacity="0.25" />
        <rect x="948" y="948" width="79" height="79" fill="none" />
        <path d="M 948 1027 A 39.5 39.5 0 0 1  987.5 987.5 L 948 1027 A 39.5 39.5 0 0 0 987.5 987.5" fill="#252e31" />
        <path d="M 1027 948 A 79 79 0 0 1  1106 1027 L 1027 948 A 79 79 0 0 0 1106 1027" fill="var(--color-primary-200)" opacity="0.75" />
        <path d="M 1437.11 1011.88 A 48.77 48.77 0 0 1  1485.8799999999999 963.11 L 1437.11 1011.88 A 48.77 48.77 0 0 0 1485.8799999999999 963.11" fill="var(--color-primary-100)" opacity="0.25" />
    </g>
</svg>