<svg class="icon-coin" width="32" height="32" viewBox="0 0 32 32" fill="none" xmlns="http://www.w3.org/2000/svg">
    <path d="M16 28C22.6274 28 28 22.6274 28 16C28 9.37258 22.6274 4 16 4C9.37258 4 4 9.37258 4 16C4 22.6274 9.37258 28 16 28Z" stroke="black" stroke-width="2" stroke-linecap="round" stroke-linejoin="round" />
    <path d="M19.7333 12C19.4918 11.581 19.1409 11.2356 18.7181 11.0007C18.2954 10.7659 17.8167 10.6504 17.3333 10.6667H14.6667C13.9594 10.6667 13.2811 10.9476 12.781 11.4477C12.281 11.9478 12 12.6261 12 13.3333C12 14.0406 12.281 14.7189 12.781 15.219C13.2811 15.719 13.9594 16 14.6667 16H17.3333C18.0406 16 18.7189 16.281 19.219 16.781C19.719 17.2811 20 17.9594 20 18.6667C20 19.3739 19.719 20.0522 19.219 20.5523C18.7189 21.0524 18.0406 21.3333 17.3333 21.3333H14.6667C14.1833 21.3496 13.7046 21.2341 13.2819 20.9993C12.8591 20.7644 12.5082 20.419 12.2667 20M16 8V10.6667M16 21.3333V24" stroke="black" stroke-width="1.33333" stroke-linecap="round" stroke-linejoin="round" />
</svg>