<svg class="icon-pig" width="32" height="32" viewBox="0 0 32 32" fill="none" xmlns="http://www.w3.org/2000/svg">
    <path d="M17.5289 9.30667C15.6524 8.94001 13.7111 9.09999 11.92 9.76889C11.833 9.80333 11.7537 9.85455 11.6865 9.91965C11.6194 9.98474 11.5657 10.0624 11.5285 10.1483C11.4535 10.3216 11.4505 10.5177 11.52 10.6933C11.5895 10.869 11.726 11.0098 11.8994 11.0848C12.0727 11.1598 12.2688 11.1629 12.4444 11.0933C13.9866 10.5102 15.6595 10.3626 17.28 10.6667C17.375 10.6917 17.4741 10.6967 17.5712 10.6815C17.6682 10.6663 17.761 10.6311 17.8438 10.5782C17.9266 10.5254 17.9975 10.4559 18.0521 10.3743C18.1067 10.2926 18.1438 10.2005 18.161 10.1038C18.1783 10.0071 18.1753 9.90791 18.1523 9.81241C18.1293 9.71692 18.0868 9.62723 18.0274 9.549C17.968 9.47076 17.893 9.40568 17.8072 9.35785C17.7214 9.31003 17.6267 9.28049 17.5289 9.27111V9.30667Z" fill="black" />
    <path d="M22.56 16.0622C23.2277 16.0622 23.7689 15.521 23.7689 14.8533C23.7689 14.1857 23.2277 13.6444 22.56 13.6444C21.8924 13.6444 21.3511 14.1857 21.3511 14.8533C21.3511 15.521 21.8924 16.0622 22.56 16.0622Z" fill="black" />
    <path d="M31.5644 16.56C31.4821 16.4381 31.3707 16.3386 31.2404 16.2703C31.1101 16.202 30.9649 16.1672 30.8178 16.1689C30.0996 16.0692 29.4407 15.7161 28.96 15.1733C28.0349 14.1622 27.2487 13.0322 26.6222 11.8133L29.1822 7.81333C29.3376 7.58153 29.4327 7.31469 29.4591 7.0369C29.4855 6.75911 29.4423 6.47912 29.3333 6.22222C29.2242 5.9885 29.0593 5.78519 28.8532 5.63019C28.647 5.47518 28.4059 5.37324 28.1511 5.33333C26.5232 5.11393 24.8662 5.34449 23.36 6C22.4968 6.38022 21.6846 6.86696 20.9422 7.44889C19.4883 6.79695 17.9402 6.37991 16.3556 6.21333C10.0533 5.6 4.29333 9.68889 3.55555 15.1111C3.26803 14.9818 3.01052 14.7941 2.79936 14.56C2.58819 14.3258 2.42798 14.0504 2.32889 13.7511C2.26551 13.5459 2.24387 13.33 2.26524 13.1163C2.28662 12.9026 2.35057 12.6953 2.45333 12.5067C2.54549 12.3483 2.67719 12.2166 2.83555 12.1244C2.94353 12.0591 3.03757 11.9731 3.11231 11.8714C3.18705 11.7696 3.24103 11.6542 3.27116 11.5316C3.30128 11.4091 3.30697 11.2818 3.2879 11.157C3.26883 11.0322 3.22537 10.9124 3.16 10.8044C3.09463 10.6965 3.00863 10.6024 2.90692 10.5277C2.80521 10.4529 2.68977 10.399 2.56719 10.3688C2.44462 10.3387 2.31731 10.333 2.19254 10.3521C2.06777 10.3712 1.94797 10.4146 1.84 10.48C1.40971 10.7441 1.05462 11.1145 0.808887 11.5556C0.580427 11.9695 0.436812 12.4248 0.386445 12.8949C0.336078 13.365 0.37997 13.8404 0.515554 14.2933C0.682442 14.8422 0.959194 15.3513 1.32899 15.7899C1.69878 16.2285 2.1539 16.5872 2.66667 16.8444L3.48444 17.2533C3.58661 19.4171 4.13752 21.536 5.10222 23.4756L5.25333 23.8133C6.0243 25.4439 7.00765 26.9652 8.17778 28.3378C8.26107 28.4326 8.36361 28.5086 8.47856 28.5607C8.59351 28.6128 8.71823 28.6398 8.84444 28.64H12.8622C13.0078 28.6393 13.151 28.6028 13.2792 28.5338C13.4074 28.4648 13.5166 28.3653 13.5974 28.2442C13.6782 28.1231 13.7279 27.9839 13.7423 27.8391C13.7567 27.6942 13.7353 27.548 13.68 27.4133L13.3333 26.6133L14.3822 26.7289C15.5645 26.8458 16.7555 26.8458 17.9378 26.7289C18.2667 27.2622 18.6222 27.7956 19.0133 28.32C19.0952 28.432 19.2021 28.5233 19.3256 28.5866C19.4491 28.6499 19.5857 28.6834 19.7244 28.6844H23.5822C23.7289 28.6843 23.8733 28.6479 24.0025 28.5784C24.1318 28.5089 24.2418 28.4085 24.3227 28.2862C24.4037 28.1638 24.4531 28.0233 24.4666 27.8772C24.4801 27.7311 24.4572 27.584 24.4 27.4489C24.2489 27.0933 24.0978 26.7111 23.9822 26.3822C23.8222 25.9111 23.6978 25.4933 23.6 25.0933C24.5817 24.5633 25.4826 23.8959 26.2756 23.1111C27.1612 23.2182 28.0566 23.2182 28.9422 23.1111C29.0959 23.0879 29.2408 23.0248 29.3624 22.9281C29.4841 22.8314 29.5782 22.7045 29.6356 22.56L31.6444 17.3956C31.701 17.2605 31.7232 17.1135 31.7093 16.9677C31.6953 16.822 31.6456 16.6819 31.5644 16.56ZM28.2044 21.3956C27.5066 21.4353 26.8066 21.4025 26.1156 21.2978C25.3286 21.1649 24.5689 20.9036 23.8667 20.5244C23.6587 20.4213 23.4186 20.4036 23.1978 20.4752C22.977 20.5468 22.7929 20.7019 22.6849 20.9074C22.5769 21.1129 22.5536 21.3524 22.62 21.5749C22.6863 21.7973 22.8371 21.985 23.04 22.0978C23.4115 22.2926 23.7944 22.4647 24.1867 22.6133C23.702 23.0272 23.1638 23.374 22.5867 23.6444L21.6444 24.0711C21.6444 24.0711 22.08 26.0178 22.3733 26.88H20.2578C20.0444 26.5778 18.9689 24.7822 18.9689 24.7822L18.3733 24.8622C17.1223 25.0426 15.8547 25.0784 14.5956 24.9689C14.0089 24.9156 13.0311 24.7911 12.2667 24.6578L10.8889 24.4178C10.8889 24.4178 11.4489 26.5778 11.5556 26.8533H9.26222C8.32543 25.7063 7.53146 24.4497 6.89778 23.1111L6.73778 22.7644C5.58284 20.5413 5.09512 18.0317 5.33333 15.5378C5.81333 10.9244 10.7733 7.44 16.1689 7.94666C17.7385 8.12261 19.266 8.56764 20.6844 9.26222L21.2356 9.52L21.68 9.10222C22.3722 8.48371 23.1545 7.97417 24 7.59111C25.1187 7.1059 26.3408 6.90731 27.5556 7.01333L24.5511 11.7156L24.7733 12.16C25.5497 13.7237 26.5399 15.1716 27.7156 16.4622C28.2616 16.9959 28.9082 17.4159 29.6178 17.6978L28.2044 21.3956Z" fill="black" />
</svg>