<svg xmlns="http://www.w3.org/2000/svg" width="12" height="12" viewBox="0 0 12 12" fill="none">
    <path d="M6 12C5.16667 12 4.38622 11.8418 3.65867 11.5253C2.93067 11.2084 2.29733 10.7804 1.75867 10.2413C1.21956 9.70267 0.791556 9.06933 0.474667 8.34133C0.158222 7.61378 0 6.83333 0 6C0 5.16667 0.158222 4.386 0.474667 3.658C0.791556 2.93044 1.21956 2.29711 1.75867 1.758C2.29733 1.21933 2.93067 0.791556 3.65867 0.474667C4.38622 0.158222 5.16667 0 6 0C6.91111 0 7.77511 0.194444 8.592 0.583333C9.40844 0.972222 10.1 1.52222 10.6667 2.23333V0.666667H12V4.66667H8V3.33333H9.83333C9.37778 2.71111 8.81667 2.22222 8.15 1.86667C7.48333 1.51111 6.76667 1.33333 6 1.33333C4.7 1.33333 3.59733 1.786 2.692 2.69133C1.78622 3.59711 1.33333 4.7 1.33333 6C1.33333 7.3 1.78622 8.40267 2.692 9.308C3.59733 10.2138 4.7 10.6667 6 10.6667C7.16667 10.6667 8.186 10.2889 9.058 9.53333C9.93044 8.77778 10.4444 7.82222 10.6 6.66667H11.9667C11.8 8.18889 11.1473 9.45822 10.0087 10.4747C8.86956 11.4916 7.53333 12 6 12ZM7.86667 8.8L5.33333 6.26667V2.66667H6.66667V5.73333L8.8 7.86667L7.86667 8.8Z" fill="white" />
</svg>