<svg width="14" height="4" viewBox="0 0 14 4" fill="none" xmlns="http://www.w3.org/2000/svg">
    <path d="M1.66667 2.66666C2.03486 2.66666 2.33333 2.36818 2.33333 1.99999C2.33333 1.63181 2.03486 1.33333 1.66667 1.33333C1.29848 1.33333 1 1.63181 1 1.99999C1 2.36818 1.29848 2.66666 1.66667 2.66666Z" stroke="black" stroke-width="1.33333" />
    <path d="M7 2.66666C7.36819 2.66666 7.66667 2.36818 7.66667 1.99999C7.66667 1.63181 7.36819 1.33333 7 1.33333C6.63181 1.33333 6.33334 1.63181 6.33334 1.99999C6.33334 2.36818 6.63181 2.66666 7 2.66666Z" stroke="black" stroke-width="1.33333" />
    <path d="M12.3333 2.66666C12.7015 2.66666 13 2.36818 13 1.99999C13 1.63181 12.7015 1.33333 12.3333 1.33333C11.9651 1.33333 11.6667 1.63181 11.6667 1.99999C11.6667 2.36818 11.9651 2.66666 12.3333 2.66666Z" stroke="black" stroke-width="1.33333" />
</svg>