<svg width="17" height="17" viewBox="0 0 17 17" fill="none" xmlns="http://www.w3.org/2000/svg">
    <g clip-path="url(#clip0_329_123)">
        <path d="M2.32953 4.14369H3.66286H14.3295" stroke="var(--color-white-three)" stroke-width="2" stroke-linecap="round" stroke-linejoin="round" />
        <path d="M5.66284 4.14369V2.81035C5.66284 2.45673 5.80332 2.11759 6.05337 1.86754C6.30341 1.6175 6.64255 1.47702 6.99617 1.47702H9.66284C10.0165 1.47702 10.3556 1.6175 10.6057 1.86754C10.8557 2.11759 10.9962 2.45673 10.9962 2.81035V4.14369M12.9962 4.14369V13.477C12.9962 13.8306 12.8557 14.1698 12.6057 14.4198C12.3556 14.6699 12.0165 14.8104 11.6628 14.8104H4.99618C4.64255 14.8104 4.30341 14.6699 4.05337 14.4198C3.80332 14.1698 3.66284 13.8306 3.66284 13.477V4.14369H12.9962Z" stroke="var(--color-white-three)" stroke-width="2" stroke-linecap="round" stroke-linejoin="round" />
        <path d="M6.99622 7.47702V11.477" stroke="var(--color-white-three)" stroke-width="2" stroke-linecap="round" stroke-linejoin="round" />
        <path d="M9.66284 7.47702V11.477" stroke="var(--color-white-three)" stroke-width="2" stroke-linecap="round" stroke-linejoin="round" />
    </g>
    <defs>
        <clipPath id="clip0_329_123">
            <rect width="16" height="16" fill="white" transform="translate(0.329529 0.143692)" />
        </clipPath>
    </defs>
</svg>